<svg xmlns="http://www.w3.org/2000/svg" xmlns:xlink="http://www.w3.org/1999/xlink" xmlns:lucid="lucid" width="1875" height="432.35"><g transform="translate(3680 1611.3543325973524)" lucid:page-tab-id="0_0"><path d="M-2926-1604.35a6 6 0 0 1 6-6h1108a6 6 0 0 1 6 6V-1186a6 6 0 0 1-6 6h-1108a6 6 0 0 1-6-6zM-3280-1604.35a6 6 0 0 1 6-6h282a6 6 0 0 1 6 6V-1186a6 6 0 0 1-6 6h-282a6 6 0 0 1-6-6zM-3646.9-1604.35a6 6 0 0 1 6-6h294.9a6 6 0 0 1 6 6V-1186a6 6 0 0 1-6 6h-294.9a6 6 0 0 1-6-6z" stroke="#282c33" stroke-width="2" fill="#f2f3f5"/><path d="M-3549.9-1434a6 6 0 0 1 6-6h88a6 6 0 0 1 6 6v167.3a6 6 0 0 1-6 6h-88a6 6 0 0 1-6-6z" stroke="#282c33" stroke-width="2" fill="#fff"/><use xlink:href="#a" transform="matrix(1,0,0,1,-3544.8947407831592,-1435.0000000174232) translate(15.988888888888887 94.84027777777777)"/><path d="M-3427.3-1363.8l6-1.06 12.16-1.6 20.6-1.86 33.73-1.62 44.2-.32 38.7 1.28 24.9 1.86 14.7 1.7 8.84 1.43 5.6 1.14 3.74.93 2.6.76 1.87.63 1.4.54 1.06.46.84.4.5.28m-16.72 21.96l-6.02 1.05-12.15 1.6-20.6 1.86-33.73 1.63-44.22.32-38.7-1.28-24.9-1.86-14.68-1.7-8.85-1.4-5.6-1.15-3.74-.93-2.6-.76-1.88-.63-1.4-.54-1.06-.47-.84-.4-.5-.28" stroke="#5e5e5e" stroke-width="2" fill="none"/><path d="M-3441.8-1359.3l12.25-8.66 2.75 8.85z" stroke="#5e5e5e" stroke-width="2" fill="#5e5e5e"/><path d="M-3204.48-1359.18l-1.04 1.65-.87-.55 1.06-1.65z" stroke="#5e5e5e" stroke-width=".05" fill="#5e5e5e"/><path d="M-3208.1-1341.4l-12.25 8.66-2.74-8.86z" stroke="#5e5e5e" stroke-width="2" fill="#5e5e5e"/><path d="M-3443.5-1342.63l-1.05 1.65-.87-.55 1.05-1.65z" stroke="#5e5e5e" stroke-width=".05" fill="#5e5e5e"/><path d="M-3200-1434a6 6 0 0 1 6-6h88a6 6 0 0 1 6 6v167.3a6 6 0 0 1-6 6h-88a6 6 0 0 1-6-6z" stroke="#282c33" stroke-width="2" fill="#fff"/><use xlink:href="#b" transform="matrix(1,0,0,1,-3195,-1435.0000000186947) translate(31.677777777777777 94.84027777777777)"/><path d="M-3440-1374.35a6 6 0 0 1 6-6h228a6 6 0 0 1 6 6v48a6 6 0 0 1-6 6h-228a6 6 0 0 1-6-6z" fill="none"/><use xlink:href="#c" transform="matrix(1,0,0,1,-3440,-1380.3543325973524) translate(89.5777777777778 39.33333333333333)"/><path d="M-3098-1350.35h252.7" stroke="#5e5e5e" stroke-width="2" fill="none"/><path d="M-3097.97-1349.38h-1.03v-1.95h1.03z" stroke="#5e5e5e" stroke-width=".05" fill="#5e5e5e"/><path d="M-2830.03-1350.35l-14.26 4.63v-9.27z" stroke="#5e5e5e" stroke-width="2" fill="#5e5e5e"/><path d="M-2825.8-1434a6 6 0 0 1 6-6h167.8a6 6 0 0 1 6 6v167.3a6 6 0 0 1-6 6h-167.8a6 6 0 0 1-6-6z" stroke="#282c33" stroke-width="2" fill="#ffd9d9"/><use xlink:href="#d" transform="matrix(1,0,0,1,-2820.7894815663185,-1435.0000000186947) translate(28.450000000000017 76.32499999999999)"/><use xlink:href="#e" transform="matrix(1,0,0,1,-2820.7894815663185,-1435.0000000186947) translate(102.41 76.32499999999999)"/><use xlink:href="#f" transform="matrix(1,0,0,1,-2820.7894815663185,-1435.0000000186947) translate(15.430000000000035 105.92499999999998)"/><path d="M-3082.9-1414a6 6 0 0 1 6-6h228a6 6 0 0 1 6 6v48a6 6 0 0 1-6 6h-228a6 6 0 0 1-6-6z" fill="none"/><use xlink:href="#g" transform="matrix(1,0,0,1,-3082.8947407831592,-1420) translate(21.03111111111116 24.311111111111114)"/><use xlink:href="#h" transform="matrix(1,0,0,1,-3082.8947407831592,-1420) translate(68.53333333333336 24.311111111111114)"/><use xlink:href="#i" transform="matrix(1,0,0,1,-3082.8947407831592,-1420) translate(83.71555555555557 24.311111111111114)"/><use xlink:href="#j" transform="matrix(1,0,0,1,-3082.8947407831592,-1420) translate(135.2888888888889 24.311111111111114)"/><use xlink:href="#k" transform="matrix(1,0,0,1,-3082.8947407831592,-1420) translate(41.99111111111114 50.62222222222221)"/><use xlink:href="#l" transform="matrix(1,0,0,1,-3082.8947407831592,-1420) translate(62.8977777777778 50.62222222222221)"/><use xlink:href="#m" transform="matrix(1,0,0,1,-3082.8947407831592,-1420) translate(88.94222222222223 50.62222222222221)"/><use xlink:href="#n" transform="matrix(1,0,0,1,-3082.8947407831592,-1420) translate(139.57333333333332 50.62222222222221)"/><path d="M-2646.23-1421.87v-.6l.08-.93.18-1.05.3-1.2.46-1.37.7-1.63 1.03-1.96 1.5-2.4 2.22-2.94 3.2-3.62 4.5-4.35 5.94-4.9 6.9-4.83 6.96-4.1 6.12-2.97 4.85-1.9m27.05 13.3v.6l-.1.93-.16 1.05-.3 1.2-.47 1.37-.7 1.63-1.03 1.96-1.5 2.38-2.22 2.94-3.2 3.63-4.52 4.34-5.92 4.88-6.92 4.84-6.96 4.1-6.12 2.97-4.85 1.9M-2646.25-1421.9l.07 1.03" stroke="#5e5e5e" stroke-width="2" fill="none"/><path d="M-2586.5-1463.38l-14 5.38-.48-9.26z" stroke="#5e5e5e" stroke-width="2" fill="#5e5e5e"/><path d="M-2573.23-1449.35l-1.95.14-.07-1.03 1.95-.14z" stroke="#5e5e5e" stroke-width=".05" fill="#5e5e5e"/><path d="M-2633.97-1407.8l14-5.37.5 9.26z" stroke="#5e5e5e" stroke-width="2" fill="#5e5e5e"/><path d="M-2580-1514a6 6 0 0 1 6-6h88a6 6 0 0 1 6 6v48a6 6 0 0 1-6 6h-88a6 6 0 0 1-6-6z" stroke="#282c33" stroke-width="2" fill="#fcfcca"/><use xlink:href="#o" transform="matrix(1,0,0,1,-2575,-1515.0000000186947) translate(32.550000000000004 32.76249999999999)"/><path d="M-2860-1514a6 6 0 0 1 6-6h228a6 6 0 0 1 6 6v48a6 6 0 0 1-6 6h-228a6 6 0 0 1-6-6z" fill="none"/><use xlink:href="#p" transform="matrix(1,0,0,1,-2860,-1520) translate(13.315555555555619 37.46666666666666)"/><use xlink:href="#i" transform="matrix(1,0,0,1,-2860,-1520) translate(91.43111111111114 37.46666666666666)"/><use xlink:href="#q" transform="matrix(1,0,0,1,-2860,-1520) translate(143.00444444444443 37.46666666666666)"/><path d="M-2644-1350.35h269.5" stroke="#5e5e5e" stroke-width="2" fill="none"/><path d="M-2643.97-1349.38h-1.03v-1.95h1.03z" stroke="#5e5e5e" stroke-width=".05" fill="#5e5e5e"/><path d="M-2359.24-1350.35l-14.26 4.63v-9.27z" stroke="#5e5e5e" stroke-width="2" fill="#5e5e5e"/><path d="M-2355-1434a6 6 0 0 1 6-6h88a6 6 0 0 1 6 6v167.3a6 6 0 0 1-6 6h-88a6 6 0 0 1-6-6z" stroke="#282c33" stroke-width="2" fill="#fff"/><use xlink:href="#r" transform="matrix(1,0,0,1,-2349.9999504336815,-1435.0000000174232) translate(2.424444444444468 92.41944444444444)"/><path d="M-2253-1350.35h18.5" stroke="#5e5e5e" stroke-width="2" fill="none"/><path d="M-2252.97-1349.38h-1.03v-1.95h1.03z" stroke="#5e5e5e" stroke-width=".05" fill="#5e5e5e"/><path d="M-2219.24-1350.35l-14.26 4.63v-9.27z" stroke="#5e5e5e" stroke-width="2" fill="#5e5e5e"/><path d="M-2215-1434a6 6 0 0 1 6-6h8a6 6 0 0 1 6 6v167.3a6 6 0 0 1-6 6h-8a6 6 0 0 1-6-6z" stroke="#282c33" stroke-width="2" fill="#fff"/><use xlink:href="#s" transform="matrix(1,0,0,1,-2209.9999504336815,-1435.0000000174232) translate(-2.777777777777774 91.53333333333333)"/><path d="M-2155-1434a6 6 0 0 1 6-6h8a6 6 0 0 1 6 6v167.3a6 6 0 0 1-6 6h-8a6 6 0 0 1-6-6z" stroke="#282c33" stroke-width="2" fill="#fff"/><use xlink:href="#s" transform="matrix(1,0,0,1,-2149.9999504336815,-1435.0000000174232) translate(-2.777777777777774 91.53333333333333)"/><path d="M-2133-1350.35h18.5" stroke="#5e5e5e" stroke-width="2" fill="none"/><path d="M-2132.97-1349.38h-1.03v-1.95h1.03z" stroke="#5e5e5e" stroke-width=".05" fill="#5e5e5e"/><path d="M-2099.24-1350.35l-14.26 4.63v-9.27z" stroke="#5e5e5e" stroke-width="2" fill="#5e5e5e"/><path d="M-2095-1434a6 6 0 0 1 6-6h88a6 6 0 0 1 6 6v167.3a6 6 0 0 1-6 6h-88a6 6 0 0 1-6-6z" stroke="#282c33" stroke-width="2" fill="#fff"/><use xlink:href="#t" transform="matrix(1,0,0,1,-2089.9999504336815,-1435.0000000174232) translate(2.424444444444468 92.41944444444444)"/><path d="M-1993-1350.35h18.5" stroke="#5e5e5e" stroke-width="2" fill="none"/><path d="M-1992.97-1349.38h-1.03v-1.95h1.03z" stroke="#5e5e5e" stroke-width=".05" fill="#5e5e5e"/><path d="M-1959.24-1350.35l-14.26 4.63v-9.27z" stroke="#5e5e5e" stroke-width="2" fill="#5e5e5e"/><path d="M-1955-1434a6 6 0 0 1 6-6h88a6 6 0 0 1 6 6v167.3a6 6 0 0 1-6 6h-88a6 6 0 0 1-6-6z" stroke="#282c33" stroke-width="2" fill="#cfe4ff"/><g><use xlink:href="#u" transform="matrix(1,0,0,1,-1949.9999504336815,-1435.0000000174232) translate(1.7555555555555742 92.41944444444444)"/></g><path d="M-2535-1594a6 6 0 0 1 6-6h328a6 6 0 0 1 6 6v48a6 6 0 0 1-6 6h-328a6 6 0 0 1-6-6z" fill="none"/><g><use xlink:href="#v" transform="matrix(1,0,0,1,-2534.9999504336815,-1600) translate(27.31445312500003 39.215494791666664)"/><use xlink:href="#w" transform="matrix(1,0,0,1,-2534.9999504336815,-1600) translate(56.81640625000003 39.215494791666664)"/><use xlink:href="#x" transform="matrix(1,0,0,1,-2534.9999504336815,-1600) translate(174.02018229166666 39.215494791666664)"/></g><path d="M-3680-1574a6 6 0 0 1 6-6h328a6 6 0 0 1 6 6v48a6 6 0 0 1-6 6h-328a6 6 0 0 1-6-6z" fill="none"/><g><use xlink:href="#y" transform="matrix(1,0,0,1,-3680,-1580) translate(67.169921875 39.215494791666664)"/><use xlink:href="#z" transform="matrix(1,0,0,1,-3680,-1580) translate(92.50325520833333 39.215494791666664)"/><use xlink:href="#A" transform="matrix(1,0,0,1,-3680,-1580) translate(171.11328125 39.215494791666664)"/></g><path d="M-3303-1574a6 6 0 0 1 6-6h328a6 6 0 0 1 6 6v48a6 6 0 0 1-6 6h-328a6 6 0 0 1-6-6z" fill="none"/><g><use xlink:href="#B" transform="matrix(1,0,0,1,-3303,-1580.0000000186947) translate(67.22558593750001 24.541666666666664)"/><use xlink:href="#C" transform="matrix(1,0,0,1,-3303,-1580.0000000186947) translate(96.86360677083334 24.541666666666664)"/><use xlink:href="#D" transform="matrix(1,0,0,1,-3303,-1580.0000000186947) translate(163.64811197916669 24.541666666666664)"/><use xlink:href="#x" transform="matrix(1,0,0,1,-3303,-1580.0000000186947) translate(100.66731770833334 59.2080078125)"/></g><path d="M-2620-1414a6 6 0 0 1 6-6h228a6 6 0 0 1 6 6v48a6 6 0 0 1-6 6h-228a6 6 0 0 1-6-6z" fill="none"/><g><use xlink:href="#E" transform="matrix(1,0,0,1,-2620,-1420) translate(15.662222222222255 24.311111111111114)"/><use xlink:href="#F" transform="matrix(1,0,0,1,-2620,-1420) translate(53.65333333333335 24.311111111111114)"/><use xlink:href="#G" transform="matrix(1,0,0,1,-2620,-1420) translate(102.7911111111111 24.311111111111114)"/><use xlink:href="#H" transform="matrix(1,0,0,1,-2620,-1420) translate(206.8622222222222 24.311111111111114)"/><use xlink:href="#I" transform="matrix(1,0,0,1,-2620,-1420) translate(30.64000000000003 50.62222222222221)"/><use xlink:href="#J" transform="matrix(1,0,0,1,-2620,-1420) translate(63.13777777777779 50.62222222222221)"/><use xlink:href="#K" transform="matrix(1,0,0,1,-2620,-1420) translate(131.08444444444444 50.62222222222221)"/><use xlink:href="#L" transform="matrix(1,0,0,1,-2620,-1420) translate(146.90666666666664 50.62222222222221)"/></g><defs><path fill="#282c33" d="M306 13C162 13 51-91 51-271c0-181 123-286 262-286 71 0 120 30 159 64l-47 61c-32-29-65-49-109-49-98 0-170 85-170 210S214-63 314-63c50 0 94-23 128-54l39 61c-48 44-110 69-175 69" id="M"/><path fill="#282c33" d="M241 5C155 32 92-8 92-108v-688h91v694c3 37 15 43 45 37" id="N"/><path fill="#282c33" d="M92 0v-543h91V0H92zm46-655c-36 0-63-25-63-59 0-37 27-59 63-59s63 22 63 59c0 34-27 59-63 59" id="O"/><path fill="#282c33" d="M311 13C167 13 51-92 51-271c0-176 119-286 245-286 154-3 234 132 212 307H142c6 116 77 190 180 190 53 0 96-16 136-43l33 60c-48 31-106 56-180 56zM141-315h291c0-110-50-169-135-169-77 0-145 62-156 169" id="P"/><path fill="#282c33" d="M92 0v-543h75l8 78h3c52-51 108-92 182-92 114 0 166 74 166 213V0h-91v-332c0-102-31-145-103-145-56 0-94 28-149 83V0H92" id="Q"/><path fill="#282c33" d="M263 13c-116 0-155-72-155-181v-301H27v-69l85-5 11-152h76v152h147v74H199v303c0 67 21 105 84 105 19 0 44-7 62-14l18 68c-31 10-67 20-100 20" id="R"/><g id="a"><use transform="matrix(0.022222222222222223,0,0,0.022222222222222223,0,0)" xlink:href="#M"/><use transform="matrix(0.022222222222222223,0,0,0.022222222222222223,11.311111111111112,0)" xlink:href="#N"/><use transform="matrix(0.022222222222222223,0,0,0.022222222222222223,17.644444444444446,0)" xlink:href="#O"/><use transform="matrix(0.022222222222222223,0,0,0.022222222222222223,23.755555555555556,0)" xlink:href="#P"/><use transform="matrix(0.022222222222222223,0,0,0.022222222222222223,36.06666666666667,0)" xlink:href="#Q"/><use transform="matrix(0.022222222222222223,0,0,0.022222222222222223,49.644444444444446,0)" xlink:href="#R"/></g><path fill="#282c33" d="M100 0v-733h93v654h320V0H100" id="S"/><path fill="#282c33" d="M100 0v-733h218c149 0 252 50 252 179 0 73-39 137-108 159v5c88 17 150 75 150 175C612-71 498 0 334 0H100zm93-421h109c126 0 177-47 177-121 0-86-59-118-173-118H193v239zm0 347h128c126 0 200-45 200-144 0-91-72-132-200-132H193v276" id="T"/><g id="b"><use transform="matrix(0.022222222222222223,0,0,0.022222222222222223,0,0)" xlink:href="#S"/><use transform="matrix(0.022222222222222223,0,0,0.022222222222222223,12.044444444444444,0)" xlink:href="#T"/></g><path fill="#282c33" d="M77 0v-545h75l9 81h3c56-52 122-93 200-93 93 0 143 41 170 104 66-61 134-104 211-104 126 0 184 76 184 213V0h-91v-332c0-100-40-145-124-145-52 0-106 27-166 83V0h-91v-332c0-99-41-145-124-145-50 0-107 27-165 83V0H77" id="U"/><path fill="#282c33" d="M253 0v-655H31v-78h537v78H346V0h-93" id="V"/><path fill="#282c33" d="M304 13C200 13 111-29 47-96l55-63c53 55 127 91 203 91 96 0 154-48 154-120 1-113-145-134-228-176-66-33-149-81-149-188 0-113 98-195 231-195 87 0 164 37 216 91l-49 59c-45-42-99-69-167-69-83 0-137 42-137 108 0 112 144 126 226 167 83 42 151 87 151 196 0 116-96 208-249 208" id="W"/><g id="c"><use transform="matrix(0.022222222222222213,0,0,0.022222222222222213,0,0)" xlink:href="#U"/><use transform="matrix(0.022222222222222213,0,0,0.022222222222222213,22.222222222222214,0)" xlink:href="#V"/><use transform="matrix(0.022222222222222213,0,0,0.022222222222222213,35.53333333333332,0)" xlink:href="#S"/><use transform="matrix(0.022222222222222213,0,0,0.022222222222222213,47.577777777777754,0)" xlink:href="#W"/></g><path fill="#282c33" d="M100 0v-733h93v307h342v-307h92V0h-92v-346H193V0h-93" id="X"/><path fill="#282c33" d="M217 13C126 13 58-43 58-141c0-118 103-177 334-203 0-70-23-137-112-137-63 0-120 29-163 58l-36-63c50-32 127-71 214-71 132 0 188 89 188 223V0h-75l-8-65h-3c-52 43-113 78-180 78zm26-73c53 0 96-25 149-72v-152c-183 22-245 67-245 137 0 62 42 87 96 87" id="Y"/><path fill="#282c33" d="M277 13C141 13 53-90 53-271c-5-249 231-368 388-222-8-95-4-201-5-303h91V0h-74c-4-21-4-46-11-64-43 42-100 77-165 77zm20-76c50 0 94-25 139-75v-285c-123-120-291-42-289 151 0 131 54 209 150 209" id="Z"/><path fill="#282c33" d="M92 0v-543h75l8 99h3c50-86 117-137 212-101l-17 80c-18-7-31-9-53-9-45 0-101 32-137 125V0H92" id="aa"/><g id="d"><use transform="matrix(0.019999999999999993,0,0,0.019999999999999993,0,0)" xlink:href="#X"/><use transform="matrix(0.019999999999999993,0,0,0.019999999999999993,14.559999999999995,0)" xlink:href="#P"/><use transform="matrix(0.019999999999999993,0,0,0.019999999999999993,25.63999999999999,0)" xlink:href="#Y"/><use transform="matrix(0.019999999999999993,0,0,0.019999999999999993,36.91999999999999,0)" xlink:href="#Z"/><use transform="matrix(0.019999999999999993,0,0,0.019999999999999993,49.319999999999986,0)" xlink:href="#P"/><use transform="matrix(0.019999999999999993,0,0,0.019999999999999993,60.39999999999998,0)" xlink:href="#aa"/></g><path fill="#282c33" d="M377 13C195 13 58-128 58-366c0-237 139-381 325-381 89 0 159 44 201 91l-50 60c-38-41-87-70-150-70-139 0-231 114-231 297 0 185 88 301 228 301 70 0 123-31 170-82l51 58C544-25 472 13 377 13" id="ab"/><g id="e"><use transform="matrix(0.019999999999999993,0,0,0.019999999999999993,0,0)" xlink:href="#ab"/><use transform="matrix(0.019999999999999993,0,0,0.019999999999999993,12.759999999999996,0)" xlink:href="#P"/><use transform="matrix(0.019999999999999993,0,0,0.019999999999999993,23.839999999999993,0)" xlink:href="#aa"/><use transform="matrix(0.019999999999999993,0,0,0.019999999999999993,31.59999999999999,0)" xlink:href="#R"/></g><path fill="#282c33" d="M191-298h222c-37-120-75-237-109-360h-4c-33 124-71 241-109 360zM506 0l-70-224H168L97 0H3l249-733h103L604 0h-98" id="ac"/><path fill="#282c33" d="M250 13C136 13 85-61 85-199v-344h91v333c0 101 30 144 102 144 56 0 95-27 147-92v-385h91V0h-76l-7-85h-3c-51 59-105 98-180 98" id="ad"/><path fill="#282c33" d="M92 0v-796h91c0 111 1 223-3 330 50-50 106-91 180-91 114 0 166 74 166 213V0h-91v-332c0-102-31-145-103-145-56 0-94 28-149 83V0H92" id="ae"/><path fill="#282c33" d="M303 13C170 13 51-91 51-271c0-181 119-286 252-286s252 105 252 286C555-91 436 13 303 13zm0-76c94 0 158-83 158-208s-64-210-158-210-157 85-157 210S209-63 303-63" id="af"/><g id="f"><use transform="matrix(0.019999999999999993,0,0,0.019999999999999993,0,0)" xlink:href="#ac"/><use transform="matrix(0.019999999999999993,0,0,0.019999999999999993,12.139999999999995,0)" xlink:href="#ad"/><use transform="matrix(0.019999999999999993,0,0,0.019999999999999993,24.27999999999999,0)" xlink:href="#R"/><use transform="matrix(0.019999999999999993,0,0,0.019999999999999993,31.819999999999986,0)" xlink:href="#ae"/><use transform="matrix(0.019999999999999993,0,0,0.019999999999999993,43.95999999999998,0)" xlink:href="#P"/><use transform="matrix(0.019999999999999993,0,0,0.019999999999999993,55.039999999999985,0)" xlink:href="#Q"/><use transform="matrix(0.019999999999999993,0,0,0.019999999999999993,67.25999999999998,0)" xlink:href="#R"/><use transform="matrix(0.019999999999999993,0,0,0.019999999999999993,74.79999999999997,0)" xlink:href="#O"/><use transform="matrix(0.019999999999999993,0,0,0.019999999999999993,80.29999999999997,0)" xlink:href="#M"/><use transform="matrix(0.019999999999999993,0,0,0.019999999999999993,90.47999999999995,0)" xlink:href="#Y"/><use transform="matrix(0.019999999999999993,0,0,0.019999999999999993,101.75999999999996,0)" xlink:href="#R"/><use transform="matrix(0.019999999999999993,0,0,0.019999999999999993,109.29999999999994,0)" xlink:href="#O"/><use transform="matrix(0.019999999999999993,0,0,0.019999999999999993,114.79999999999997,0)" xlink:href="#af"/><use transform="matrix(0.019999999999999993,0,0,0.019999999999999993,126.91999999999994,0)" xlink:href="#Q"/></g><g id="g"><use transform="matrix(0.01777777777777777,0,0,0.01777777777777777,0,0)" xlink:href="#W"/><use transform="matrix(0.01777777777777777,0,0,0.01777777777777777,10.61333333333333,0)" xlink:href="#P"/><use transform="matrix(0.01777777777777777,0,0,0.01777777777777777,20.46222222222222,0)" xlink:href="#Q"/><use transform="matrix(0.01777777777777777,0,0,0.01777777777777777,31.324444444444435,0)" xlink:href="#Z"/></g><use transform="matrix(0.01777777777777777,0,0,0.01777777777777777,0,0)" xlink:href="#Y" id="h"/><g id="i"><use transform="matrix(0.01777777777777777,0,0,0.01777777777777777,0,0)" xlink:href="#M"/><use transform="matrix(0.01777777777777777,0,0,0.01777777777777777,9.048888888888886,0)" xlink:href="#N"/><use transform="matrix(0.01777777777777777,0,0,0.01777777777777777,14.11555555555555,0)" xlink:href="#O"/><use transform="matrix(0.01777777777777777,0,0,0.01777777777777777,19.004444444444438,0)" xlink:href="#P"/><use transform="matrix(0.01777777777777777,0,0,0.01777777777777777,28.853333333333325,0)" xlink:href="#Q"/><use transform="matrix(0.01777777777777777,0,0,0.01777777777777777,39.71555555555554,0)" xlink:href="#R"/></g><path fill="#282c33" d="M356-791l-20 69c-75-34-144-8-138 93v86h115v74H198V0h-91v-469H33v-69l74-5v-87c0-110 50-179 158-179 33 0 65 7 91 18" id="ag"/><g id="j"><use transform="matrix(0.01777777777777777,0,0,0.01777777777777777,0,0)" xlink:href="#M"/><use transform="matrix(0.01777777777777777,0,0,0.01777777777777777,9.048888888888886,0)" xlink:href="#P"/><use transform="matrix(0.01777777777777777,0,0,0.01777777777777777,18.89777777777777,0)" xlink:href="#aa"/><use transform="matrix(0.01777777777777777,0,0,0.01777777777777777,25.795555555555545,0)" xlink:href="#R"/><use transform="matrix(0.01777777777777777,0,0,0.01777777777777777,32.49777777777776,0)" xlink:href="#O"/><use transform="matrix(0.01777777777777777,0,0,0.01777777777777777,37.38666666666665,0)" xlink:href="#ag"/><use transform="matrix(0.01777777777777777,0,0,0.01777777777777777,43.16444444444443,0)" xlink:href="#O"/><use transform="matrix(0.01777777777777777,0,0,0.01777777777777777,48.05333333333331,0)" xlink:href="#M"/><use transform="matrix(0.01777777777777777,0,0,0.01777777777777777,57.10222222222219,0)" xlink:href="#Y"/><use transform="matrix(0.01777777777777777,0,0,0.01777777777777777,67.12888888888885,0)" xlink:href="#R"/><use transform="matrix(0.01777777777777777,0,0,0.01777777777777777,73.83111111111107,0)" xlink:href="#P"/></g><g id="k"><use transform="matrix(0.01777777777777777,0,0,0.01777777777777777,0,0)" xlink:href="#O"/><use transform="matrix(0.01777777777777777,0,0,0.01777777777777777,4.888888888888887,0)" xlink:href="#Q"/></g><g id="l"><use transform="matrix(0.01777777777777777,0,0,0.01777777777777777,0,0)" xlink:href="#Y"/><use transform="matrix(0.01777777777777777,0,0,0.01777777777777777,10.026666666666662,0)" xlink:href="#Q"/></g><path fill="#282c33" d="M100 0v-733h209c165 0 275 55 275 215 0 155-110 227-270 227H193V0h-93zm93-366h109c129 0 190-47 190-152 0-106-65-140-194-140H193v292" id="ah"/><g id="m"><use transform="matrix(0.01777777777777777,0,0,0.01777777777777777,0,0)" xlink:href="#X"/><use transform="matrix(0.01777777777777777,0,0,0.01777777777777777,12.942222222222217,0)" xlink:href="#V"/><use transform="matrix(0.01777777777777777,0,0,0.01777777777777777,23.591111111111108,0)" xlink:href="#V"/><use transform="matrix(0.01777777777777777,0,0,0.01777777777777777,34.23999999999999,0)" xlink:href="#ah"/></g><g id="n"><use transform="matrix(0.01777777777777777,0,0,0.01777777777777777,0,0)" xlink:href="#ae"/><use transform="matrix(0.01777777777777777,0,0,0.01777777777777777,10.791111111111107,0)" xlink:href="#P"/><use transform="matrix(0.01777777777777777,0,0,0.01777777777777777,20.639999999999993,0)" xlink:href="#Y"/><use transform="matrix(0.01777777777777777,0,0,0.01777777777777777,30.666666666666657,0)" xlink:href="#Z"/><use transform="matrix(0.01777777777777777,0,0,0.01777777777777777,41.688888888888876,0)" xlink:href="#P"/><use transform="matrix(0.01777777777777777,0,0,0.01777777777777777,51.53777777777776,0)" xlink:href="#aa"/></g><g id="o"><use transform="matrix(0.019999999999999993,0,0,0.019999999999999993,0,0)" xlink:href="#ab"/><use transform="matrix(0.019999999999999993,0,0,0.019999999999999993,12.759999999999996,0)" xlink:href="#ac"/></g><path fill="#282c33" d="M235 0L1-733h97c64 212 127 426 190 639h4c63-213 125-426 189-639h94L342 0H235" id="ai"/><g id="p"><use transform="matrix(0.01777777777777777,0,0,0.01777777777777777,0,0)" xlink:href="#ai"/><use transform="matrix(0.01777777777777777,0,0,0.01777777777777777,10.222222222222218,0)" xlink:href="#Y"/><use transform="matrix(0.01777777777777777,0,0,0.01777777777777777,20.248888888888878,0)" xlink:href="#N"/><use transform="matrix(0.01777777777777777,0,0,0.01777777777777777,25.31555555555554,0)" xlink:href="#O"/><use transform="matrix(0.01777777777777777,0,0,0.01777777777777777,30.20444444444443,0)" xlink:href="#Z"/><use transform="matrix(0.01777777777777777,0,0,0.01777777777777777,41.226666666666645,0)" xlink:href="#Y"/><use transform="matrix(0.01777777777777777,0,0,0.01777777777777777,51.2533333333333,0)" xlink:href="#R"/><use transform="matrix(0.01777777777777777,0,0,0.01777777777777777,57.95555555555553,0)" xlink:href="#P"/></g><g id="q"><use transform="matrix(0.01777777777777777,0,0,0.01777777777777777,0,0)" xlink:href="#M"/><use transform="matrix(0.01777777777777777,0,0,0.01777777777777777,9.048888888888886,0)" xlink:href="#P"/><use transform="matrix(0.01777777777777777,0,0,0.01777777777777777,18.89777777777777,0)" xlink:href="#aa"/><use transform="matrix(0.01777777777777777,0,0,0.01777777777777777,25.795555555555545,0)" xlink:href="#R"/><use transform="matrix(0.01777777777777777,0,0,0.01777777777777777,32.49777777777776,0)" xlink:href="#O"/><use transform="matrix(0.01777777777777777,0,0,0.01777777777777777,37.38666666666665,0)" xlink:href="#ag"/><use transform="matrix(0.01777777777777777,0,0,0.01777777777777777,43.16444444444443,0)" xlink:href="#O"/><use transform="matrix(0.01777777777777777,0,0,0.01777777777777777,48.05333333333331,0)" xlink:href="#M"/><use transform="matrix(0.01777777777777777,0,0,0.01777777777777777,57.10222222222219,0)" xlink:href="#Y"/><use transform="matrix(0.01777777777777777,0,0,0.01777777777777777,67.12888888888885,0)" xlink:href="#R"/><use transform="matrix(0.01777777777777777,0,0,0.01777777777777777,73.83111111111107,0)" xlink:href="#P"/></g><path fill="#282c33" d="M100 0v-733h112c65 181 131 360 193 545h5c59-186 126-364 190-545h112V0h-87c2-212-8-425 12-622h-4C570-437 502-256 436-74h-62c-66-182-134-363-197-548h-4c18 198 9 411 11 622h-84" id="aj"/><path fill="#282c33" d="M178 0L27-543h93c39 154 83 304 113 466h5c36-159 81-311 121-466h89c41 154 85 308 123 466h4c34-159 75-312 114-466h86L629 0H519c-39-150-82-293-116-449h-5C365-294 323-150 285 0H178" id="ak"/><g id="r"><use transform="matrix(0.015555555555555548,0,0,0.015555555555555548,0,0)" xlink:href="#aj"/><use transform="matrix(0.015555555555555548,0,0,0.015555555555555548,12.631111111111105,0)" xlink:href="#O"/><use transform="matrix(0.015555555555555548,0,0,0.015555555555555548,16.90888888888888,0)" xlink:href="#Z"/><use transform="matrix(0.015555555555555548,0,0,0.015555555555555548,26.55333333333332,0)" xlink:href="#Z"/><use transform="matrix(0.015555555555555548,0,0,0.015555555555555548,36.19777777777776,0)" xlink:href="#N"/><use transform="matrix(0.015555555555555548,0,0,0.015555555555555548,40.63111111111109,0)" xlink:href="#P"/><use transform="matrix(0.015555555555555548,0,0,0.015555555555555548,49.248888888888864,0)" xlink:href="#ak"/><use transform="matrix(0.015555555555555548,0,0,0.015555555555555548,61.724444444444416,0)" xlink:href="#Y"/><use transform="matrix(0.015555555555555548,0,0,0.015555555555555548,70.49777777777774,0)" xlink:href="#aa"/><use transform="matrix(0.015555555555555548,0,0,0.015555555555555548,76.53333333333329,0)" xlink:href="#P"/></g><path fill="#282c33" d="M786-290v-140h94v140h-94zm-333 0v-140h94v140h-94zm-333 0v-140h94v140h-94" id="al"/><use transform="matrix(0.015555555555555548,0,0,0.015555555555555548,0,0)" xlink:href="#al" id="s"/><g id="t"><use transform="matrix(0.015555555555555548,0,0,0.015555555555555548,0,0)" xlink:href="#aj"/><use transform="matrix(0.015555555555555548,0,0,0.015555555555555548,12.631111111111105,0)" xlink:href="#O"/><use transform="matrix(0.015555555555555548,0,0,0.015555555555555548,16.90888888888888,0)" xlink:href="#Z"/><use transform="matrix(0.015555555555555548,0,0,0.015555555555555548,26.55333333333332,0)" xlink:href="#Z"/><use transform="matrix(0.015555555555555548,0,0,0.015555555555555548,36.19777777777776,0)" xlink:href="#N"/><use transform="matrix(0.015555555555555548,0,0,0.015555555555555548,40.63111111111109,0)" xlink:href="#P"/><use transform="matrix(0.015555555555555548,0,0,0.015555555555555548,49.248888888888864,0)" xlink:href="#ak"/><use transform="matrix(0.015555555555555548,0,0,0.015555555555555548,61.724444444444416,0)" xlink:href="#Y"/><use transform="matrix(0.015555555555555548,0,0,0.015555555555555548,70.49777777777774,0)" xlink:href="#aa"/><use transform="matrix(0.015555555555555548,0,0,0.015555555555555548,76.53333333333329,0)" xlink:href="#P"/></g><path fill="#282c33" d="M209 0L13-543h95c51 155 104 312 153 469h4c48-158 101-314 153-469h90L315 0H209" id="am"/><g id="u"><use transform="matrix(0.015555555555555548,0,0,0.015555555555555548,0,0)" xlink:href="#X"/><use transform="matrix(0.015555555555555548,0,0,0.015555555555555548,11.324444444444438,0)" xlink:href="#V"/><use transform="matrix(0.015555555555555548,0,0,0.015555555555555548,20.642222222222212,0)" xlink:href="#V"/><use transform="matrix(0.015555555555555548,0,0,0.015555555555555548,29.959999999999987,0)" xlink:href="#ah"/><use transform="matrix(0.015555555555555548,0,0,0.015555555555555548,39.79111111111109,0)" xlink:href="#W"/><use transform="matrix(0.015555555555555548,0,0,0.015555555555555548,49.077777777777754,0)" xlink:href="#P"/><use transform="matrix(0.015555555555555548,0,0,0.015555555555555548,57.69555555555553,0)" xlink:href="#aa"/><use transform="matrix(0.015555555555555548,0,0,0.015555555555555548,63.73111111111108,0)" xlink:href="#am"/><use transform="matrix(0.015555555555555548,0,0,0.015555555555555548,71.83555555555553,0)" xlink:href="#P"/><use transform="matrix(0.015555555555555548,0,0,0.015555555555555548,80.4533333333333,0)" xlink:href="#aa"/></g><path d="M659 20C335 20 103-159 99-418h307c5 112 113 185 254 185 147 0 250-83 250-204 0-123-105-209-278-209H494v-227h138c145 0 246-81 246-200 0-115-87-193-216-193-130 0-237 73-240 189H128c4-255 233-433 536-433 306 0 510 185 510 418 0 167-114 285-279 317v11c217 29 333 162 333 347 0 254-237 437-569 437" id="an"/><path d="M342 19c-98 0-173-75-173-172s75-172 173-172 173 75 173 172S440 19 342 19" id="ao"/><g id="v"><use transform="matrix(0.012369791666666666,0,0,0.012369791666666666,0,0)" xlink:href="#an"/><use transform="matrix(0.012369791666666666,0,0,0.012369791666666666,15.820963541666666,0)" xlink:href="#ao"/></g><path d="M49 0l509-1490h400L1480 0h-339l-115-346H497L386 0H49zm524-585h374c-75-213-124-402-192-666-66 268-110 453-182 666" id="ap"/><path d="M440-1490V0H135v-1490h305" id="aq"/><path d="M135 0v-1490h305v1237h643V0H135" id="ar"/><path d="M135 0v-1490h997v253H440v360h640v249H440v375h694V0H135" id="as"/><path d="M135 0v-1490h581c339 0 533 192 533 485 0 204-94 351-264 424L1302 0H964L680-532H440V0H135zm305-779h220c186 0 274-77 274-226 0-150-88-233-275-233H440v459" id="at"/><path d="M789 20C394 20 94-260 94-744c0-487 300-766 695-766s695 279 695 766c0 485-300 764-695 764zm0-271c231 0 385-174 385-493 0-321-154-495-385-495s-385 175-385 495c0 319 154 493 385 493" id="au"/><path d="M135 0v-1490h340l471 754c59 97 122 210 187 365-32-387-14-721-19-1119h312V0h-341C855-382 627-689 427-1113c32 420 16 695 20 1113H135" id="av"/><g id="w"><use transform="matrix(0.012369791666666666,0,0,0.012369791666666666,0,0)" xlink:href="#ap"/><use transform="matrix(0.012369791666666666,0,0,0.012369791666666666,18.913411458333332,0)" xlink:href="#aq"/><use transform="matrix(0.012369791666666666,0,0,0.012369791666666666,26.026041666666664,0)" xlink:href="#ar"/><use transform="matrix(0.012369791666666666,0,0,0.012369791666666666,40.350260416666664,0)" xlink:href="#as"/><use transform="matrix(0.012369791666666666,0,0,0.012369791666666666,55.73828125,0)" xlink:href="#at"/><use transform="matrix(0.012369791666666666,0,0,0.012369791666666666,72.37565104166666,0)" xlink:href="#au"/><use transform="matrix(0.012369791666666666,0,0,0.012369791666666666,91.89518229166666,0)" xlink:href="#av"/></g><path d="M135 0v-1490h581c339 0 533 210 533 503 0 295-197 500-540 500H440V0H135zm305-733h220c186 0 274-104 274-254s-88-251-275-251H440v505" id="aw"/><path d="M128 0v-1118h290v195h12c54-169 184-238 367-200v268c-27-8-86-15-130-15-138 0-239 95-239 234V0H128" id="ax"/><path d="M628 22C291 22 81-210 81-554c0-346 210-578 547-578 336 0 547 232 547 578 0 344-211 576-547 576zm0-236c160 0 242-146 242-341 0-197-82-341-242-341S387-753 387-555c0 195 81 341 241 341" id="ay"/><path d="M628 22C291 22 81-210 81-554c0-346 210-578 547-578 265 0 455 142 497 372l-279 52c-25-116-99-188-215-188-160 0-244 139-244 341 0 200 84 341 244 341 116 0 193-74 217-195l279 51C1085-123 896 22 628 22" id="az"/><path d="M633 22C291 22 81-200 81-553c0-345 210-579 537-579 292 0 525 185 525 567v84H378c7 183 109 277 260 277 105 0 184-46 216-132l272 51C1071-99 893 22 633 22zM380-669h474c-15-146-94-237-233-237-143 0-229 99-241 237" id="aA"/><path d="M572 22C302 22 117-98 78-306l279-48c29 105 101 156 224 156 114 0 185-48 185-115 0-118-228-130-337-155-215-49-322-150-322-317 0-215 187-347 470-347 265 0 424 116 466 298l-266 47c-24-76-87-130-196-130-98 0-174 46-174 113 0 56 38 95 144 117l201 40c216 44 320 143 320 302 0 220-207 367-500 367" id="aB"/><path d="M128 0v-1118h300V0H128zm150-1264c-91 0-165-68-165-154 0-85 74-154 165-154 90 0 165 69 165 154 0 86-75 154-165 154" id="aC"/><path d="M428-647V0H128v-1118h283l4 231c63-156 176-245 348-245 232 0 384 159 384 421V0H847v-659c0-139-76-222-202-222-128 0-217 86-217 234" id="aD"/><path d="M625 442c-280 0-454-114-503-274l258-72c28 63 97 128 243 128 153 0 246-69 246-216v-206h-23C805-108 717-16 536-16 284-16 81-191 81-561c0-378 208-571 456-571 188 0 280 113 321 202h13v-188h295V-9c0 303-226 451-541 451zm5-686c153 0 240-119 240-319 0-198-86-329-240-329-158 0-241 137-241 329 0 195 85 319 241 319" id="aE"/><g id="x"><use transform="matrix(0.012369791666666666,0,0,0.012369791666666666,0,0)" xlink:href="#aw"/><use transform="matrix(0.012369791666666666,0,0,0.012369791666666666,16.414713541666664,0)" xlink:href="#ax"/><use transform="matrix(0.012369791666666666,0,0,0.012369791666666666,26.112630208333325,0)" xlink:href="#ay"/><use transform="matrix(0.012369791666666666,0,0,0.012369791666666666,41.64908854166666,0)" xlink:href="#az"/><use transform="matrix(0.012369791666666666,0,0,0.012369791666666666,56.554687499999986,0)" xlink:href="#aA"/><use transform="matrix(0.012369791666666666,0,0,0.012369791666666666,71.64583333333331,0)" xlink:href="#aB"/><use transform="matrix(0.012369791666666666,0,0,0.012369791666666666,85.83398437499999,0)" xlink:href="#aB"/><use transform="matrix(0.012369791666666666,0,0,0.012369791666666666,100.02213541666666,0)" xlink:href="#aC"/><use transform="matrix(0.012369791666666666,0,0,0.012369791666666666,106.88736979166666,0)" xlink:href="#aD"/><use transform="matrix(0.012369791666666666,0,0,0.012369791666666666,122.65885416666666,0)" xlink:href="#aE"/></g><path d="M749-1490V0H444v-1221h-10L93-980v-279l329-231h327" id="aF"/><g id="y"><use transform="matrix(0.012369791666666666,0,0,0.012369791666666666,0,0)" xlink:href="#aF"/><use transform="matrix(0.012369791666666666,0,0,0.012369791666666666,10.922526041666666,0)" xlink:href="#ao"/></g><path d="M786 20C389 20 94-260 94-744c0-487 299-766 692-766 339 0 597 194 641 529h-309c-28-162-156-258-326-258-233 0-388 179-388 495 0 323 157 493 387 493 170 0 298-97 328-259h309c-34 277-266 530-642 530" id="aG"/><path d="M428-1490V0H128v-1490h300" id="aH"/><path d="M683-1118v229H474v562c0 71 29 104 102 104 23 0 73-7 95-13l43 225C647 9 580 16 520 16 296 16 174-96 174-301v-588H20v-229h154v-266h300v266h209" id="aI"/><g id="z"><use transform="matrix(0.012369791666666666,0,0,0.012369791666666666,0,0)" xlink:href="#aG"/><use transform="matrix(0.012369791666666666,0,0,0.012369791666666666,18.740234375,0)" xlink:href="#aH"/><use transform="matrix(0.012369791666666666,0,0,0.012369791666666666,25.60546875,0)" xlink:href="#aC"/><use transform="matrix(0.012369791666666666,0,0,0.012369791666666666,32.470703125,0)" xlink:href="#aA"/><use transform="matrix(0.012369791666666666,0,0,0.012369791666666666,47.56184895833333,0)" xlink:href="#aD"/><use transform="matrix(0.012369791666666666,0,0,0.012369791666666666,63.33333333333333,0)" xlink:href="#aI"/></g><path d="M1163 418H863v-597h-10C812-89 719 19 537 19 279 19 81-185 81-557c0-382 206-575 454-575 190 0 278 113 318 202h15v-188h295V418zM629-222c153 0 240-134 240-336 0-203-86-334-240-334-158 0-240 138-240 334 0 197 84 336 240 336" id="aJ"/><path d="M513 14c-232 0-385-159-385-421v-711h300v659c0 139 76 222 202 222 127 0 217-86 217-234v-647h301V0H864l-4-232C797-74 683 14 513 14" id="aK"/><g id="A"><use transform="matrix(0.012369791666666666,0,0,0.012369791666666666,0,0)" xlink:href="#at"/><use transform="matrix(0.012369791666666666,0,0,0.012369791666666666,16.328124999999996,0)" xlink:href="#aA"/><use transform="matrix(0.012369791666666666,0,0,0.012369791666666666,31.419270833333325,0)" xlink:href="#aJ"/><use transform="matrix(0.012369791666666666,0,0,0.012369791666666666,47.38867187499999,0)" xlink:href="#aK"/><use transform="matrix(0.012369791666666666,0,0,0.012369791666666666,63.16015625,0)" xlink:href="#aA"/><use transform="matrix(0.012369791666666666,0,0,0.012369791666666666,78.25130208333333,0)" xlink:href="#aB"/><use transform="matrix(0.012369791666666666,0,0,0.012369791666666666,92.439453125,0)" xlink:href="#aI"/></g><path d="M124 0v-220l528-495c135-132 210-216 210-336 0-133-98-215-231-215-139 0-229 88-229 233H110c0-290 214-477 523-477 315 0 525 182 525 440 0 167-80 305-385 586L548-262v11h630V0H124" id="aL"/><g id="B"><use transform="matrix(0.012369791666666666,0,0,0.012369791666666666,0,0)" xlink:href="#aL"/><use transform="matrix(0.012369791666666666,0,0,0.012369791666666666,15.95703125,0)" xlink:href="#ao"/></g><path d="M440 22C227 22 68-92 68-313c0-250 202-322 422-343 195-21 271-24 271-105 0-95-63-149-175-149-116 0-187 57-211 129l-275-46c57-194 237-305 487-305 240 0 474 108 474 379V0H777v-155h-10C713-51 605 22 440 22zm85-211c140 0 238-93 238-211v-121c-37 26-156 42-222 51-111 16-185 59-185 149 0 87 70 132 169 132" id="aM"/><path d="M537 19C279 19 81-185 81-557c0-382 206-575 454-575 190 0 278 113 318 202h10v-560h300V0H868v-179h-15C812-89 719 19 537 19zm92-241c153 0 240-134 240-336 0-203-86-334-240-334-158 0-240 138-240 334 0 197 84 336 240 336" id="aN"/><g id="C"><use transform="matrix(0.012369791666666666,0,0,0.012369791666666666,0,0)" xlink:href="#ar"/><use transform="matrix(0.012369791666666666,0,0,0.012369791666666666,14.32421875,0)" xlink:href="#ay"/><use transform="matrix(0.012369791666666666,0,0,0.012369791666666666,30.108072916666664,0)" xlink:href="#aM"/><use transform="matrix(0.012369791666666666,0,0,0.012369791666666666,44.81575520833333,0)" xlink:href="#aN"/></g><path d="M135 0v-1490h591c327 0 492 160 492 383 0 177-115 286-268 320v15c168 8 326 140 326 361 0 236-176 411-512 411H135zm305-251h264c179 0 258-76 258-189 0-125-97-215-250-215H440v404zm0-613h241c131 0 228-74 228-194 0-109-79-183-222-183H440v377" id="aO"/><g id="D"><use transform="matrix(0.012369791666666666,0,0,0.012369791666666666,0,0)" xlink:href="#aO"/><use transform="matrix(0.012369791666666666,0,0,0.012369791666666666,16.761067708333332,0)" xlink:href="#aM"/><use transform="matrix(0.012369791666666666,0,0,0.012369791666666666,31.46875,0)" xlink:href="#aH"/><use transform="matrix(0.012369791666666666,0,0,0.012369791666666666,38.333984375,0)" xlink:href="#aM"/><use transform="matrix(0.012369791666666666,0,0,0.012369791666666666,53.041666666666664,0)" xlink:href="#aD"/><use transform="matrix(0.012369791666666666,0,0,0.012369791666666666,68.81315104166666,0)" xlink:href="#az"/><use transform="matrix(0.012369791666666666,0,0,0.012369791666666666,83.71874999999999,0)" xlink:href="#aA"/><use transform="matrix(0.012369791666666666,0,0,0.012369791666666666,98.80989583333331,0)" xlink:href="#ax"/></g><g id="E"><use transform="matrix(0.01777777777777777,0,0,0.01777777777777777,0,0)" xlink:href="#ac"/><use transform="matrix(0.01777777777777777,0,0,0.01777777777777777,10.791111111111107,0)" xlink:href="#Z"/><use transform="matrix(0.01777777777777777,0,0,0.01777777777777777,21.813333333333325,0)" xlink:href="#Z"/></g><path fill="#282c33" d="M92 0v-543h75l8 79h3c47-52 104-93 169-93 83 0 128 40 150 104 56-61 113-104 179-104 112 0 165 74 165 213V0h-91v-332c0-102-32-145-101-145-42 0-86 27-137 83V0h-91v-332c0-102-32-145-101-145-41 0-87 27-137 83V0H92" id="aP"/><g id="F"><use transform="matrix(0.01777777777777777,0,0,0.01777777777777777,0,0)" xlink:href="#aP"/><use transform="matrix(0.01777777777777777,0,0,0.01777777777777777,16.462222222222216,0)" xlink:href="#af"/><use transform="matrix(0.01777777777777777,0,0,0.01777777777777777,27.235555555555546,0)" xlink:href="#aa"/><use transform="matrix(0.01777777777777777,0,0,0.01777777777777777,34.13333333333332,0)" xlink:href="#P"/></g><g id="G"><use transform="matrix(0.01777777777777777,0,0,0.01777777777777777,0,0)" xlink:href="#O"/><use transform="matrix(0.01777777777777777,0,0,0.01777777777777777,4.888888888888887,0)" xlink:href="#Q"/><use transform="matrix(0.01777777777777777,0,0,0.01777777777777777,15.751111111111104,0)" xlink:href="#ag"/><use transform="matrix(0.01777777777777777,0,0,0.01777777777777777,21.52888888888888,0)" xlink:href="#af"/><use transform="matrix(0.01777777777777777,0,0,0.01777777777777777,32.30222222222221,0)" xlink:href="#aa"/><use transform="matrix(0.01777777777777777,0,0,0.01777777777777777,39.19999999999998,0)" xlink:href="#aP"/><use transform="matrix(0.01777777777777777,0,0,0.01777777777777777,55.66222222222221,0)" xlink:href="#Y"/><use transform="matrix(0.01777777777777777,0,0,0.01777777777777777,65.68888888888887,0)" xlink:href="#R"/><use transform="matrix(0.01777777777777777,0,0,0.01777777777777777,72.39111111111109,0)" xlink:href="#O"/><use transform="matrix(0.01777777777777777,0,0,0.01777777777777777,77.27999999999997,0)" xlink:href="#af"/><use transform="matrix(0.01777777777777777,0,0,0.01777777777777777,88.0533333333333,0)" xlink:href="#Q"/></g><g id="H"><use transform="matrix(0.01777777777777777,0,0,0.01777777777777777,0,0)" xlink:href="#R"/><use transform="matrix(0.01777777777777777,0,0,0.01777777777777777,6.702222222222219,0)" xlink:href="#af"/></g><g id="I"><use transform="matrix(0.01777777777777777,0,0,0.01777777777777777,0,0)" xlink:href="#R"/><use transform="matrix(0.01777777777777777,0,0,0.01777777777777777,6.702222222222219,0)" xlink:href="#ae"/><use transform="matrix(0.01777777777777777,0,0,0.01777777777777777,17.493333333333325,0)" xlink:href="#P"/></g><path fill="#282c33" d="M15 0l179-283L29-543h98c43 70 84 140 127 210h4c39-71 77-140 116-210h95L304-274 483 0H383c-48-73-92-149-138-224h-5C197-151 154-74 111 0H15" id="aQ"/><g id="J"><use transform="matrix(0.01777777777777777,0,0,0.01777777777777777,0,0)" xlink:href="#M"/><use transform="matrix(0.01777777777777777,0,0,0.01777777777777777,9.048888888888886,0)" xlink:href="#af"/><use transform="matrix(0.01777777777777777,0,0,0.01777777777777777,19.822222222222216,0)" xlink:href="#Q"/><use transform="matrix(0.01777777777777777,0,0,0.01777777777777777,30.684444444444434,0)" xlink:href="#R"/><use transform="matrix(0.01777777777777777,0,0,0.01777777777777777,37.38666666666665,0)" xlink:href="#P"/><use transform="matrix(0.01777777777777777,0,0,0.01777777777777777,47.23555555555554,0)" xlink:href="#aQ"/><use transform="matrix(0.01777777777777777,0,0,0.01777777777777777,56.088888888888874,0)" xlink:href="#R"/></g><g id="K"><use transform="matrix(0.01777777777777777,0,0,0.01777777777777777,0,0)" xlink:href="#O"/><use transform="matrix(0.01777777777777777,0,0,0.01777777777777777,4.888888888888887,0)" xlink:href="#ag"/></g><g id="L"><use transform="matrix(0.01777777777777777,0,0,0.01777777777777777,0,0)" xlink:href="#Q"/><use transform="matrix(0.01777777777777777,0,0,0.01777777777777777,10.862222222222218,0)" xlink:href="#P"/><use transform="matrix(0.01777777777777777,0,0,0.01777777777777777,20.7111111111111,0)" xlink:href="#P"/><use transform="matrix(0.01777777777777777,0,0,0.01777777777777777,30.559999999999988,0)" xlink:href="#Z"/><use transform="matrix(0.01777777777777777,0,0,0.01777777777777777,41.58222222222221,0)" xlink:href="#P"/><use transform="matrix(0.01777777777777777,0,0,0.01777777777777777,51.43111111111109,0)" xlink:href="#Z"/></g></defs></g></svg>